<svg viewBox="0 0 188.32 41.8279" xmlns="http://www.w3.org/2000/svg" xmlns:xlink="http://www.w3.org/1999/xlink" width="188.320190" height="41.827881" fill="none" customFrame="#000000">
	<defs>
		<filter id="pixso_custom_mask_type_outline">
			<feColorMatrix type="matrix" values="0 0 0 0 1 0 0 0 0 1 0 0 0 0 1 0 0 0 1 0 " />
		</filter>
	</defs>
	<mask id="mask_1" width="188.320236" height="41.827900" x="0.000000" y="0.000000" maskUnits="userSpaceOnUse">
		<g filter="url(#pixso_custom_mask_type_outline)">
			<g id="clip0_2640_228734">
				<path id="Vector" d="M188.32 0L-0.00012207 0L-0.00012207 41.8279L188.32 41.8279L188.32 0Z" fill="rgb(255,255,255)" fill-rule="evenodd" />
			</g>
		</g>
	</mask>
	<g id="Clip path group" mask="url(#mask_1)">
		<g id="Group">
			<path id="Vector" d="M43.1503 37.227L25.1731 37.227C21.7144 37.227 18.8992 34.4086 18.8992 30.9326L18.8992 12.9354C18.8992 9.47284 21.7144 6.65448 25.1731 6.65448L43.1503 6.65448C46.6223 6.65448 49.4242 9.47284 49.4242 12.9354L49.4242 30.9326C49.4376 34.4086 46.6223 37.227 43.1503 37.227Z" fill="rgb(253,219,50)" fill-rule="nonzero" />
			<path id="Vector" d="M28.2278 31.2823L28.2278 28.3163C28.2278 28.0747 28.04 27.8868 27.7988 27.8868L24.8361 27.8868C24.5948 27.8868 24.4071 28.0747 24.4071 28.3163L24.4071 31.2823C24.4071 31.5239 24.5948 31.7118 24.8361 31.7118L27.7988 31.7118C28.04 31.7118 28.2278 31.5239 28.2278 31.2823Z" fill="rgb(25,30,59)" fill-rule="nonzero" />
			<path id="Vector" d="M43.9293 28.7311L43.9293 14.1159C43.9293 13.0287 43.0579 12.1564 41.972 12.1564L27.3731 12.1564C27.0782 12.1564 26.9039 12.2638 26.7162 12.4516L23.8072 15.3908C23.5927 15.6055 23.7402 15.9276 24.0619 15.9276L37.2666 15.9276L29.0756 24.1277C28.9282 24.2753 28.8612 24.423 28.8612 24.6646L28.8612 26.8253C28.8612 27.0803 29.0355 27.2548 29.2901 27.2548L31.4485 27.2548C31.7032 27.2548 31.8506 27.1877 31.9847 27.0401L40.1757 18.8399L40.1757 32.0594C40.1757 32.3815 40.4974 32.5292 40.7119 32.3144L43.6478 29.3887C43.822 29.2008 43.9293 29.0264 43.9293 28.7311Z" fill="rgb(25,30,59)" fill-rule="nonzero" />
			<path id="Vector" d="M88.2478 24.9603L94.2267 16.6932C94.4011 16.4381 94.267 16.1831 93.9721 16.1831L90.7144 16.1831C90.5402 16.1831 90.3123 16.2503 90.205 16.4381L86.2637 22.1957L82.2286 16.4381C82.1213 16.2636 81.9068 16.1831 81.7192 16.1831L78.2471 16.1831C78.0728 16.1831 77.9521 16.3307 77.9521 16.4784C77.9521 16.5455 77.9521 16.626 78.0191 16.6932L84.0116 24.9872L77.4025 34.0865C77.2282 34.3414 77.3623 34.5965 77.617 34.5965L80.9014 34.5965C81.0757 34.5965 81.3036 34.5294 81.4108 34.3414L85.9822 27.7519L90.6207 34.3414C90.7279 34.5294 90.9423 34.5965 91.1301 34.5965L94.629 34.5965C94.8033 34.5965 94.9239 34.4488 94.9239 34.3012C94.9239 34.2341 94.8836 34.1536 94.8569 34.0865L88.2478 24.9603Z" fill="rgb(25,30,59)" fill-rule="nonzero" />
			<path id="Vector" d="M74.8957 9.271C75.1505 9.271 75.3247 9.44547 75.3247 9.70046L75.3247 12.1565C75.3247 12.4114 75.1505 12.5859 74.8957 12.5859L63.2193 12.5859L63.2193 19.8868L73.7027 19.8868C73.9573 19.8868 74.1316 20.0613 74.1316 20.3163L74.1316 22.7589C74.1316 23.0139 73.9573 23.1883 73.7027 23.1883L63.2193 23.1883L63.2193 31.1872L74.8957 31.1872C75.1505 31.1872 75.3247 31.3616 75.3247 31.6166L75.3247 34.1531C75.3247 34.4081 75.1505 34.5826 74.8957 34.5826L61.2352 34.5826C60.1896 34.5826 59.3987 33.7908 59.3987 32.7439L59.3987 11.1097C59.3987 10.0628 60.1896 9.271 61.2352 9.271L74.8957 9.271Z" fill="rgb(25,30,59)" fill-rule="nonzero" />
			<path id="Vector" d="M107.229 15.6057C103.69 15.6057 101.813 17.1624 100.727 18.6119L100.727 16.6122C100.727 16.3572 100.554 16.1827 100.299 16.1827L97.4431 16.1827C97.1885 16.1827 97.0142 16.3706 97.0142 16.6122L97.0142 40.4475C97.0142 40.7025 97.1885 40.877 97.4431 40.877L100.339 40.877C100.593 40.877 100.768 40.7025 100.768 40.4475L100.768 32.234C101.813 33.6834 103.69 35.1329 107.229 35.1329C112.981 35.1329 116.332 30.798 116.332 25.3625C116.332 19.9271 112.981 15.6057 107.229 15.6057ZM106.586 32.0192C103.047 32.0192 100.621 29.6304 100.621 25.4028C100.621 21.1753 103.047 18.7058 106.586 18.7058C110.125 18.7058 112.512 21.1618 112.512 25.4028C112.512 29.6304 110.125 32.0192 106.586 32.0192Z" fill="rgb(25,30,59)" fill-rule="nonzero" />
			<path id="Vector" d="M127.727 15.6057C122.7 15.6057 118.692 19.2292 118.692 25.2284C118.692 31.375 122.23 35.1463 128.196 35.1463C131.628 35.1463 134.483 33.6297 136.253 31.5227C136.36 31.4153 136.4 31.3079 136.4 31.2005C136.4 31.0932 136.36 30.9858 136.253 30.8785L134.591 29.2411C134.483 29.1337 134.376 29.0935 134.269 29.0935C134.162 29.0935 134.054 29.1606 133.947 29.268C132.58 30.7577 130.797 32.0192 128.236 32.0192C124.496 32.0192 122.7 29.7109 122.418 26.3825L136.293 26.3825C136.547 26.3825 136.722 26.1946 136.722 25.9531L136.722 25.2284C136.722 19.7258 133.398 15.6057 127.727 15.6057ZM122.552 23.5641C122.981 20.5444 124.563 18.5716 127.7 18.5716C130.917 18.5716 132.62 20.4102 132.861 23.5641L122.552 23.5641Z" fill="rgb(25,30,59)" fill-rule="nonzero" />
			<path id="Vector" d="M188.388 16.1833L185.533 16.1833C185.278 16.1833 185.103 16.3578 185.103 16.6127L185.103 18.6393C184.017 17.1898 182.141 15.6331 178.522 15.6331C172.851 15.6331 169.486 19.968 169.486 25.4034C169.486 30.8388 172.851 35.1737 178.522 35.1737C182.141 35.1737 184.017 33.6169 185.103 32.1675L185.103 34.1538C185.103 34.4087 185.278 34.5832 185.533 34.5832L188.388 34.5832C188.643 34.5832 188.817 34.4087 188.817 34.1538L188.817 16.6127C188.83 16.3578 188.643 16.1833 188.388 16.1833ZM179.245 32.0601C175.706 32.0601 173.32 29.6041 173.32 25.3631C173.32 21.1356 175.706 18.7466 179.245 18.7466C182.785 18.7466 185.211 21.1356 185.211 25.3631C185.211 29.6041 182.785 32.0601 179.245 32.0601Z" fill="rgb(25,30,59)" fill-rule="nonzero" />
			<path id="Vector" d="M157.973 9.271L155.077 9.271C154.822 9.271 154.648 9.44547 154.648 9.70046L154.648 18.6387C153.562 17.1893 151.726 15.6324 148.106 15.6324C142.436 15.6324 139.071 19.9673 139.071 25.4028C139.071 30.8382 142.436 35.1731 148.106 35.1731C151.726 35.1731 153.602 33.6163 154.688 32.1668L154.688 34.1531C154.688 34.4081 154.863 34.5826 155.117 34.5826L157.973 34.5826C158.228 34.5826 158.401 34.4081 158.401 34.1531L158.401 9.70046C158.401 9.44547 158.228 9.271 157.973 9.271ZM148.83 32.0595C145.291 32.0595 142.905 29.6035 142.905 25.3625C142.905 21.1349 145.291 18.7461 148.83 18.7461C152.369 18.7461 154.796 21.1349 154.796 25.3625C154.796 29.6035 152.369 32.0595 148.83 32.0595Z" fill="rgb(25,30,59)" fill-rule="nonzero" />
			<path id="Vector" d="M165.842 9.271C166.096 9.271 166.27 9.44547 166.27 9.70046L166.27 12.6665C166.27 12.9214 166.096 13.0959 165.842 13.0959L162.879 13.0959C162.624 13.0959 162.45 12.9214 162.45 12.6665L162.45 9.70046C162.45 9.44547 162.624 9.271 162.879 9.271L165.842 9.271Z" fill="rgb(25,30,59)" fill-rule="nonzero" />
			<path id="Vector" d="M165.812 16.1831C166.067 16.1831 166.241 16.3576 166.241 16.6126L166.241 34.1536C166.241 34.4085 166.067 34.583 165.812 34.583L162.916 34.583C162.662 34.583 162.487 34.4085 162.487 34.1536L162.487 16.6126C162.487 16.3576 162.662 16.1831 162.916 16.1831L165.812 16.1831Z" fill="rgb(25,30,59)" fill-rule="nonzero" />
		</g>
	</g>
</svg>
